<svg xmlns="http://www.w3.org/2000/svg" viewBox="0 0 800 1000" width="800" height="1000" role="img" aria-label="مطار تونس قرطاج">
  <defs>
    <linearGradient id="g" x1="0" y1="0" x2="1" y2="1">
      <stop offset="0%" stop-color="#0e5b46"/>
      <stop offset="100%" stop-color="#1c1c1c"/>
    </linearGradient>
  </defs>
  <rect width="800" height="1000" fill="url(#g)"/>
  <circle cx="64" cy="560" r="10" fill="#ffffff" opacity="0.07"/><circle cx="168" cy="270" r="5" fill="#ffffff" opacity="0.07"/><circle cx="272" cy="980" r="9" fill="#ffffff" opacity="0.07"/><circle cx="376" cy="690" r="4" fill="#ffffff" opacity="0.07"/><circle cx="480" cy="400" r="8" fill="#ffffff" opacity="0.07"/><circle cx="584" cy="110" r="3" fill="#ffffff" opacity="0.07"/><circle cx="688" cy="820" r="7" fill="#ffffff" opacity="0.07"/><circle cx="792" cy="530" r="11" fill="#ffffff" opacity="0.07"/><circle cx="96" cy="240" r="6" fill="#ffffff" opacity="0.07"/><circle cx="200" cy="950" r="10" fill="#ffffff" opacity="0.07"/><circle cx="304" cy="660" r="5" fill="#ffffff" opacity="0.07"/><circle cx="408" cy="370" r="9" fill="#ffffff" opacity="0.07"/><circle cx="512" cy="80" r="4" fill="#ffffff" opacity="0.07"/><circle cx="616" cy="790" r="8" fill="#ffffff" opacity="0.07"/>
  <g color="#ffffff" opacity="0.16"><g transform="translate(-400 80) scale(1)">
  <g transform="translate(800 640) scale(1.3)" fill="currentColor">
    <rect x="-150" y="-10" width="300" height="130" rx="6"/>
    <path d="M-110 -10 a110 110 0 0 1 220 0 z"/>
    <circle cx="0" cy="-125" r="12"/>
    <rect x="-4" y="-140" width="8" height="30"/>
    <rect x="-185" y="-70" width="26" height="190" rx="13"/>
    <path d="M-185 -70 a13 13 0 0 1 26 0 z"/>
    <rect x="159" y="-70" width="26" height="190" rx="13"/>
    <path d="M159 -70 a13 13 0 0 1 26 0 z"/>
    <path d="M-60 120 v-60 a60 60 0 0 1 120 0 v60 z" fill="#000" opacity="0.25"/>
  </g>
  <g transform="translate(400 280) rotate(20) scale(1.2)" fill="currentColor">
    <path d="M0 -60 c8 0 14 14 14 32 v14 l40 24 v14 l-40 -10 v28 l14 12 v10 l-28 -8 -28 8 v-10 l14 -12 v-28 l-40 10 v-14 l40 -24 v-14 c0 -18 6 -32 14 -32 z"/>
  </g></g></g>
  <g font-family="Cairo, Segoe UI, Tahoma, sans-serif" text-anchor="middle" fill="#ffffff">
    <text x="400" y="860" font-size="44" font-weight="700">مطار تونس قرطاج</text>
    <text x="400" y="910.6" font-size="24" opacity="0.6">public/images/airport-tunis.svg</text>
  </g>
</svg>
