<svg xmlns="http://www.w3.org/2000/svg" viewBox="0 0 1600 900" width="1600" height="900" role="img" aria-label="صورة العرض رقم 9">
  <defs>
    <linearGradient id="g" x1="0" y1="0" x2="1" y2="1">
      <stop offset="0%" stop-color="#0b6e4f"/>
      <stop offset="100%" stop-color="#07301f"/>
    </linearGradient>
  </defs>
  <rect width="1600" height="900" fill="url(#g)"/>
  <circle cx="1008" cy="819" r="7" fill="#ffffff" opacity="0.07"/><circle cx="1216" cy="558" r="11" fill="#ffffff" opacity="0.07"/><circle cx="1424" cy="297" r="6" fill="#ffffff" opacity="0.07"/><circle cx="32" cy="36" r="10" fill="#ffffff" opacity="0.07"/><circle cx="240" cy="675" r="5" fill="#ffffff" opacity="0.07"/><circle cx="448" cy="414" r="9" fill="#ffffff" opacity="0.07"/><circle cx="656" cy="153" r="4" fill="#ffffff" opacity="0.07"/><circle cx="864" cy="792" r="8" fill="#ffffff" opacity="0.07"/><circle cx="1072" cy="531" r="3" fill="#ffffff" opacity="0.07"/><circle cx="1280" cy="270" r="7" fill="#ffffff" opacity="0.07"/><circle cx="1488" cy="9" r="11" fill="#ffffff" opacity="0.07"/><circle cx="96" cy="648" r="6" fill="#ffffff" opacity="0.07"/><circle cx="304" cy="387" r="10" fill="#ffffff" opacity="0.07"/><circle cx="512" cy="126" r="5" fill="#ffffff" opacity="0.07"/>
  <g color="#ffffff" opacity="0.16">
  <g transform="translate(800 420) scale(1.4)" fill="currentColor">
    <rect x="-90" y="-100" width="180" height="200" rx="4"/>
    <rect x="-96" y="-46" width="192" height="16" opacity="0.45"/>
  </g>
  <g transform="translate(1300 240) rotate(-20) scale(0.9)" fill="currentColor">
    <path d="M0 -60 c8 0 14 14 14 32 v14 l40 24 v14 l-40 -10 v28 l14 12 v10 l-28 -8 -28 8 v-10 l14 -12 v-28 l-40 10 v-14 l40 -24 v-14 c0 -18 6 -32 14 -32 z"/>
  </g></g>
  <g font-family="Cairo, Segoe UI, Tahoma, sans-serif" text-anchor="middle" fill="#ffffff">
    <text x="800" y="774" font-size="89" font-weight="700">صورة العرض رقم 9</text>
    <text x="800" y="876.35" font-size="47" opacity="0.6">public/images/offer-9.svg</text>
  </g>
</svg>
